<?xml version="1.0" encoding="UTF-8"?>
<svg width="924px" height="323px" viewBox="0 0 924 323" version="1.1" xmlns="http://www.w3.org/2000/svg" xmlns:xlink="http://www.w3.org/1999/xlink">
    <!-- Generator: Sketch 44.1 (41455) - http://www.bohemiancoding.com/sketch -->
    <title>More</title>
    <desc>Created with Sketch.</desc>
    <defs></defs>
    <g id="Page-1" stroke="none" stroke-width="1" fill="none" fill-rule="evenodd">
        <g id="More">
            <g id="CanYouTellMeMore" transform="translate(43.000000, 40.000000)">
                <circle id="Oval" fill="#AEC636" cx="770" cy="75" r="75"></circle>
                <path d="M744.064,91 L736.112,91 L736.112,75.712 L721.776,53.648 L730.848,53.648 L740.088,68.6 L749.328,53.648 L758.344,53.648 L744.064,75.712 L744.064,91 Z M767.195663,91.672 C758.291663,91.672 752.915663,85.12 752.915663,77.448 C752.915663,69.776 758.291663,63.28 767.195663,63.28 C776.155663,63.28 781.531663,69.776 781.531663,77.448 C781.531663,85.12 776.155663,91.672 767.195663,91.672 Z M767.195663,85.344 C771.675663,85.344 774.139663,81.704 774.139663,77.448 C774.139663,73.248 771.675663,69.608 767.195663,69.608 C762.771663,69.608 760.307663,73.248 760.307663,77.448 C760.307663,81.704 762.771663,85.344 767.195663,85.344 Z M812.167326,91 L812.167326,63.952 L805.055326,63.952 L805.055326,82.264 C803.823326,83.832 801.639326,85.344 798.895326,85.344 C795.871326,85.344 793.911326,84.112 793.911326,80.36 L793.911326,63.952 L786.799326,63.952 L786.799326,83.16 C786.799326,88.424 789.599326,91.672 795.535326,91.672 C799.959326,91.672 803.207326,89.6 805.055326,87.584 L805.055326,91 L812.167326,91 Z" id="You" fill="#FFFFFF"></path>
                <path d="M647,49.523601 L647,9 C647,4.581722 643.418278,1 639,1 L8,1 L8,1 C3.581722,1 -5.41083001e-16,4.581722 0,9 L0,9 L0,236 C5.41083001e-16,240.418278 3.581722,244 8,244 L639,244 C643.418278,244 647,240.418278 647,236 L647,95.6880222 L680.620467,72.6058116 L647,49.523601 Z" id="Speech-bubble" fill="#DDF1F5"></path>
            </g>
            <path d="M148.944,135.988 C157.228,135.988 164.144,132.492 168.856,127.248 L168.856,108.932 L145.144,108.932 L145.144,114.556 L162.548,114.556 L162.548,124.892 C160.04,127.4 155.024,130.364 148.944,130.364 C137.848,130.364 129.412,121.7 129.412,109.692 C129.412,97.608 137.848,89.096 148.944,89.096 C155.024,89.096 160.42,91.984 163.612,96.088 L168.628,92.972 C164.144,87.424 157.912,83.472 148.944,83.472 C134.504,83.472 122.876,93.96 122.876,109.692 C122.876,125.424 134.504,135.988 148.944,135.988 Z M184.535663,135 L184.535663,109.008 C186.207663,106.044 190.995663,103.156 194.491663,103.156 C195.403663,103.156 196.087663,103.232 196.771663,103.384 L196.771663,97.532 C191.755663,97.532 187.499663,100.344 184.535663,104.22 L184.535663,98.292 L178.835663,98.292 L178.835663,135 L184.535663,135 Z M220.431326,135.912 C209.563326,135.912 201.735326,128.084 201.735326,116.608 C201.735326,105.968 209.335326,97.38 219.823326,97.38 C230.919326,97.38 237.455326,106.044 237.455326,117.064 L237.455326,118.508 L207.739326,118.508 C208.195326,125.424 213.059326,131.2 220.963326,131.2 C225.143326,131.2 229.399326,129.528 232.287326,126.564 L235.023326,130.288 C231.375326,133.936 226.435326,135.912 220.431326,135.912 Z M231.831326,114.328 C231.755326,108.856 228.107326,102.092 219.747326,102.092 C211.919326,102.092 208.043326,108.704 207.739326,114.328 L231.831326,114.328 Z M275.250989,135 L269.550989,135 L269.550989,130.82 C266.510989,134.164 262.330989,135.912 257.390989,135.912 C251.158989,135.912 244.546989,131.732 244.546989,123.752 C244.546989,115.544 251.158989,111.668 257.390989,111.668 C262.406989,111.668 266.586989,113.264 269.550989,116.684 L269.550989,110.072 C269.550989,105.132 265.598989,102.32 260.278989,102.32 C255.870989,102.32 252.298989,103.916 249.030989,107.412 L246.370989,103.46 C250.322989,99.356 255.034989,97.38 261.038989,97.38 C268.790989,97.38 275.250989,100.876 275.250989,109.768 L275.250989,135 Z M259.442989,131.808 C263.470989,131.808 267.346989,130.288 269.550989,127.248 L269.550989,120.332 C267.346989,117.292 263.470989,115.772 259.442989,115.772 C254.122989,115.772 250.398989,119.116 250.398989,123.828 C250.398989,128.464 254.122989,131.808 259.442989,131.808 Z M295.870652,135.912 C299.214652,135.912 301.266652,134.924 302.710652,133.556 L301.038652,129.3 C300.278652,130.136 298.758652,130.82 297.162652,130.82 C294.654652,130.82 293.438652,128.844 293.438652,126.108 L293.438652,103.308 L300.886652,103.308 L300.886652,98.292 L293.438652,98.292 L293.438652,88.26 L287.738652,88.26 L287.738652,98.292 L281.658652,98.292 L281.658652,103.308 L287.738652,103.308 L287.738652,127.324 C287.738652,132.796 290.474652,135.912 295.870652,135.912 Z M314.286315,120.788 L315.502315,84.308 L308.358315,84.308 L309.574315,120.788 L314.286315,120.788 Z M311.930315,135.76 C314.210315,135.76 316.110315,133.784 316.110315,131.58 C316.110315,129.3 314.210315,127.4 311.930315,127.4 C309.650315,127.4 307.750315,129.3 307.750315,131.58 C307.750315,133.784 309.650315,135.76 311.930315,135.76 Z M370.117641,135.912 C379.085641,135.912 385.165641,131.656 389.421641,125.88 L384.025641,122.916 C381.137641,127.248 375.893641,130.288 370.117641,130.288 C359.021641,130.288 350.585641,121.7 350.585641,109.692 C350.585641,97.608 359.021641,89.096 370.117641,89.096 C375.893641,89.096 381.137641,92.212 384.025641,96.468 L389.345641,93.504 C385.317641,87.804 379.085641,83.472 370.117641,83.472 C355.525641,83.472 344.049641,94.112 344.049641,109.692 C344.049641,125.272 355.525641,135.912 370.117641,135.912 Z M425.849304,135 L420.149304,135 L420.149304,130.82 C417.109304,134.164 412.929304,135.912 407.989304,135.912 C401.757304,135.912 395.145304,131.732 395.145304,123.752 C395.145304,115.544 401.757304,111.668 407.989304,111.668 C413.005304,111.668 417.185304,113.264 420.149304,116.684 L420.149304,110.072 C420.149304,105.132 416.197304,102.32 410.877304,102.32 C406.469304,102.32 402.897304,103.916 399.629304,107.412 L396.969304,103.46 C400.921304,99.356 405.633304,97.38 411.637304,97.38 C419.389304,97.38 425.849304,100.876 425.849304,109.768 L425.849304,135 Z M410.041304,131.808 C414.069304,131.808 417.945304,130.288 420.149304,127.248 L420.149304,120.332 C417.945304,117.292 414.069304,115.772 410.041304,115.772 C404.721304,115.772 400.997304,119.116 400.997304,123.828 C400.997304,128.464 404.721304,131.808 410.041304,131.808 Z M467.672967,135 L467.672967,109.236 C467.672967,101.256 463.644967,97.38 455.968967,97.38 C450.496967,97.38 445.480967,100.572 442.896967,103.612 L442.896967,98.292 L437.196967,98.292 L437.196967,135 L442.896967,135 L442.896967,108.172 C445.024967,105.208 449.280967,102.472 453.764967,102.472 C458.704967,102.472 461.972967,104.524 461.972967,110.984 L461.972967,135 L467.672967,135 Z M496.524293,149.364 C497.588293,149.668 499.488293,149.896 500.704293,149.896 C505.568293,149.82 509.292293,147.768 511.496293,142.448 L529.888293,98.292 L523.656293,98.292 L511.496293,128.388 L499.260293,98.292 L493.104293,98.292 L508.456293,135.38 L506.024293,140.928 C504.732293,143.968 503.060293,144.804 500.552293,144.804 C499.640293,144.804 498.272293,144.576 497.436293,144.196 L496.524293,149.364 Z M551.799956,135.912 C540.627956,135.912 533.635956,127.248 533.635956,116.608 C533.635956,105.968 540.627956,97.38 551.799956,97.38 C562.971956,97.38 569.963956,105.968 569.963956,116.608 C569.963956,127.248 562.971956,135.912 551.799956,135.912 Z M551.799956,130.82 C559.627956,130.82 563.959956,124.132 563.959956,116.608 C563.959956,109.16 559.627956,102.472 551.799956,102.472 C543.971956,102.472 539.563956,109.16 539.563956,116.608 C539.563956,124.132 543.971956,130.82 551.799956,130.82 Z M609.659619,135 L609.659619,98.292 L603.959619,98.292 L603.959619,125.272 C601.831619,128.236 597.575619,130.82 593.091619,130.82 C588.151619,130.82 584.883619,128.92 584.883619,122.46 L584.883619,98.292 L579.183619,98.292 L579.183619,124.208 C579.183619,132.188 583.211619,135.912 590.887619,135.912 C596.359619,135.912 601.147619,133.024 603.959619,129.832 L603.959619,135 L609.659619,135 Z M133.972,228.912 C137.316,228.912 139.368,227.924 140.812,226.556 L139.14,222.3 C138.38,223.136 136.86,223.82 135.264,223.82 C132.756,223.82 131.54,221.844 131.54,219.108 L131.54,196.308 L138.988,196.308 L138.988,191.292 L131.54,191.292 L131.54,181.26 L125.84,181.26 L125.84,191.292 L119.76,191.292 L119.76,196.308 L125.84,196.308 L125.84,220.324 C125.84,225.796 128.576,228.912 133.972,228.912 Z M163.559663,228.912 C152.691663,228.912 144.863663,221.084 144.863663,209.608 C144.863663,198.968 152.463663,190.38 162.951663,190.38 C174.047663,190.38 180.583663,199.044 180.583663,210.064 L180.583663,211.508 L150.867663,211.508 C151.323663,218.424 156.187663,224.2 164.091663,224.2 C168.271663,224.2 172.527663,222.528 175.415663,219.564 L178.151663,223.288 C174.503663,226.936 169.563663,228.912 163.559663,228.912 Z M174.959663,207.328 C174.883663,201.856 171.235663,195.092 162.875663,195.092 C155.047663,195.092 151.171663,201.704 150.867663,207.328 L174.959663,207.328 Z M195.427326,228 L195.427326,177.308 L189.727326,177.308 L189.727326,228 L195.427326,228 Z M212.474989,228 L212.474989,177.308 L206.774989,177.308 L206.774989,228 L212.474989,228 Z M293.386315,228 L293.386315,201.476 C293.386315,194.104 289.814315,190.38 283.126315,190.38 C277.806315,190.38 272.866315,193.876 270.814315,197.22 C269.750315,193.42 266.558315,190.38 260.934315,190.38 C255.538315,190.38 250.598315,194.256 249.078315,196.612 L249.078315,191.292 L243.378315,191.292 L243.378315,228 L249.078315,228 L249.078315,201.172 C251.054315,198.208 255.006315,195.472 258.730315,195.472 C263.518315,195.472 265.494315,198.436 265.494315,203.072 L265.494315,228 L271.194315,228 L271.194315,201.096 C273.094315,198.208 277.122315,195.472 280.922315,195.472 C285.634315,195.472 287.686315,198.436 287.686315,203.072 L287.686315,228 L293.386315,228 Z M321.301978,228.912 C310.433978,228.912 302.605978,221.084 302.605978,209.608 C302.605978,198.968 310.205978,190.38 320.693978,190.38 C331.789978,190.38 338.325978,199.044 338.325978,210.064 L338.325978,211.508 L308.609978,211.508 C309.065978,218.424 313.929978,224.2 321.833978,224.2 C326.013978,224.2 330.269978,222.528 333.157978,219.564 L335.893978,223.288 C332.245978,226.936 327.305978,228.912 321.301978,228.912 Z M332.701978,207.328 C332.625978,201.856 328.977978,195.092 320.617978,195.092 C312.789978,195.092 308.913978,201.704 308.609978,207.328 L332.701978,207.328 Z M417.033304,228 L417.033304,201.476 C417.033304,194.104 413.461304,190.38 406.773304,190.38 C401.453304,190.38 396.513304,193.876 394.461304,197.22 C393.397304,193.42 390.205304,190.38 384.581304,190.38 C379.185304,190.38 374.245304,194.256 372.725304,196.612 L372.725304,191.292 L367.025304,191.292 L367.025304,228 L372.725304,228 L372.725304,201.172 C374.701304,198.208 378.653304,195.472 382.377304,195.472 C387.165304,195.472 389.141304,198.436 389.141304,203.072 L389.141304,228 L394.841304,228 L394.841304,201.096 C396.741304,198.208 400.769304,195.472 404.569304,195.472 C409.281304,195.472 411.333304,198.436 411.333304,203.072 L411.333304,228 L417.033304,228 Z M444.416967,228.912 C433.244967,228.912 426.252967,220.248 426.252967,209.608 C426.252967,198.968 433.244967,190.38 444.416967,190.38 C455.588967,190.38 462.580967,198.968 462.580967,209.608 C462.580967,220.248 455.588967,228.912 444.416967,228.912 Z M444.416967,223.82 C452.244967,223.82 456.576967,217.132 456.576967,209.608 C456.576967,202.16 452.244967,195.472 444.416967,195.472 C436.588967,195.472 432.180967,202.16 432.180967,209.608 C432.180967,217.132 436.588967,223.82 444.416967,223.82 Z M477.50063,228 L477.50063,202.008 C479.17263,199.044 483.96063,196.156 487.45663,196.156 C488.36863,196.156 489.05263,196.232 489.73663,196.384 L489.73663,190.532 C484.72063,190.532 480.46463,193.344 477.50063,197.22 L477.50063,191.292 L471.80063,191.292 L471.80063,228 L477.50063,228 Z M513.396293,228.912 C502.528293,228.912 494.700293,221.084 494.700293,209.608 C494.700293,198.968 502.300293,190.38 512.788293,190.38 C523.884293,190.38 530.420293,199.044 530.420293,210.064 L530.420293,211.508 L500.704293,211.508 C501.160293,218.424 506.024293,224.2 513.928293,224.2 C518.108293,224.2 522.364293,222.528 525.252293,219.564 L527.988293,223.288 C524.340293,226.936 519.400293,228.912 513.396293,228.912 Z M524.796293,207.328 C524.720293,201.856 521.072293,195.092 512.712293,195.092 C504.884293,195.092 501.008293,201.704 500.704293,207.328 L524.796293,207.328 Z M546.555956,213.94 L551.191956,211.964 C549.899956,210.976 549.139956,209.456 549.139956,208.24 C549.139956,200.792 563.883956,199.804 563.883956,188.328 C563.883956,181.792 558.259956,176.548 548.987956,176.548 C541.767956,176.548 536.143956,179.588 532.495956,184.3 L536.295956,188.404 C539.107956,184.68 542.679956,182.172 548.379956,182.172 C554.383956,182.172 557.347956,185.44 557.347956,189.24 C557.347956,197.296 543.591956,198.132 543.591956,207.784 C543.591956,210.064 544.503956,212.192 546.555956,213.94 Z M548.151956,228.76 C550.431956,228.76 552.331956,226.86 552.331956,224.58 C552.331956,222.3 550.431956,220.4 548.151956,220.4 C545.871956,220.4 543.971956,222.3 543.971956,224.58 C543.971956,226.86 545.871956,228.76 548.151956,228.76 Z" id="Great!-Can-you-tell" fill="#555555"></path>
        </g>
    </g>
</svg>