<?xml version="1.0" encoding="UTF-8"?>
<svg width="1822px" height="499px" viewBox="0 0 1822 499" version="1.1" xmlns="http://www.w3.org/2000/svg" xmlns:xlink="http://www.w3.org/1999/xlink">
    <!-- Generator: Sketch 46.2 (44496) - http://www.bohemiancoding.com/sketch -->
    <title>WandaTalk</title>
    <desc>Created with Sketch.</desc>
    <defs></defs>
    <g id="Page-1" stroke="none" stroke-width="1" fill="none" fill-rule="evenodd">
        <g id="WandaTalk">
            <g id="WhatCanIDoForYou" transform="translate(3.000000, 6.000000)">
                <circle id="Oval" fill="#76878F" cx="75" cy="75" r="75"></circle>
                <path d="M121,49 L109.567873,49 L83.8806097,85.1529258 C83.1338942,86.2294819 82.8487164,87.5329128 83.0763584,88.8262883 C83.305251,90.1196639 84.0219478,91.2446115 85.0926153,91.9937387 C85.915003,92.573181 86.8831065,92.8786137 87.8918603,92.8786137 L87.8931111,92.8786137 L107.501585,92.8691867 L107.501585,103 L117.281432,103 L117.312701,84.4207672 L96.3164873,84.4207672 L120.999375,49 L121,49 Z" id="Shape-Copy" fill="#A2D722"></path>
                <path d="M63.2625503,49 L63.2625503,80.6723581 C63.2625503,88.5592986 58.4912617,93.2690355 50.5012617,93.2690355 C42.4588993,93.2690355 37.6585906,88.5592986 37.6585906,80.6723581 L37.6585906,49 L27,49 L27,79.4718736 C27,93.5450162 36.4441611,103 50.5012617,103 C64.5558389,103 74,93.5443932 74,79.4712506 L74,49 L63.2625503,49 L63.2625503,49 Z" id="Path" fill="#FFFFFF"></path>
                <path d="M210.380659,97.2099336 L210.380659,235 C210.380659,239.418278 213.962381,243 218.380659,243 L218.380659,243 L949,243 C953.418278,243 957,239.418278 957,235 L957,8 C957,3.581722 953.418278,-8.11624501e-16 949,0 L218.380659,0 C213.962381,8.11624501e-16 210.380659,3.581722 210.380659,8 L210.380659,8 L210.380659,50.0016895 L176,73.6058116 L210.380659,97.2099336 Z" id="Speech-bubble" fill="#BBE5F5"></path>
                <path d="M312.184,102 L312.184,51.308 L305.876,51.308 L305.876,73.12 L276.236,73.12 L276.236,51.308 L269.928,51.308 L269.928,102 L276.236,102 L276.236,78.744 L305.876,78.744 L305.876,102 L312.184,102 Z M326.641121,60.048 C328.769121,60.048 330.441121,58.376 330.441121,56.248 C330.441121,54.12 328.769121,52.372 326.641121,52.372 C324.513121,52.372 322.765121,54.12 322.765121,56.248 C322.765121,58.376 324.513121,60.048 326.641121,60.048 Z M329.453121,102 L329.453121,65.292 L323.753121,65.292 L323.753121,102 L329.453121,102 Z M346.190242,87.788 L347.406242,51.308 L340.262242,51.308 L341.478242,87.788 L346.190242,87.788 Z M343.834242,102.76 C346.114242,102.76 348.014242,100.784 348.014242,98.58 C348.014242,96.3 346.114242,94.4 343.834242,94.4 C341.554242,94.4 339.654242,96.3 339.654242,98.58 C339.654242,100.784 341.554242,102.76 343.834242,102.76 Z M384.376484,102 L384.376484,51.308 L378.068484,51.308 L378.068484,102 L384.376484,102 Z M403.621605,56.324 C403.621605,52.6 401.417605,50.548 398.833605,50.548 C396.553605,50.548 394.805605,52.448 394.805605,54.652 C394.805605,56.856 396.401605,58.528 398.453605,58.528 C398.833605,58.528 399.365605,58.452 399.517605,58.376 C399.213605,60.808 397.009605,63.848 394.577605,65.444 L397.465605,67.8 C400.961605,65.292 403.621605,60.96 403.621605,56.324 Z M463.374725,102 L463.374725,75.476 C463.374725,68.104 459.802725,64.38 453.114725,64.38 C447.794725,64.38 442.854725,67.876 440.802725,71.22 C439.738725,67.42 436.546725,64.38 430.998725,64.38 C425.526725,64.38 420.662725,68.256 419.066725,70.612 L419.066725,65.292 L413.366725,65.292 L413.366725,102 L419.066725,102 L419.066725,75.172 C421.042725,72.208 424.994725,69.472 428.718725,69.472 C433.582725,69.472 435.482725,72.436 435.482725,77.072 L435.482725,102 L441.182725,102 L441.182725,75.096 C443.082725,72.132 447.110725,69.472 450.910725,69.472 C455.698725,69.472 457.674725,72.436 457.674725,77.072 L457.674725,102 L463.374725,102 Z M540.168967,102 L554.684967,51.308 L547.616967,51.308 L536.444967,93.564 L524.816967,51.308 L519.572967,51.308 L507.944967,93.564 L496.696967,51.308 L489.704967,51.308 L504.144967,102 L510.984967,102 L522.156967,61.112 L533.328967,102 L540.168967,102 Z M587.002088,102 L581.302088,102 L581.302088,97.82 C578.338088,101.164 574.082088,102.912 569.142088,102.912 C562.986088,102.912 556.374088,98.732 556.374088,90.752 C556.374088,82.468 562.910088,78.668 569.142088,78.668 C574.158088,78.668 578.338088,80.264 581.302088,83.608 L581.302088,76.996 C581.302088,72.132 577.350088,69.32 572.030088,69.32 C567.622088,69.32 564.050088,70.84 560.782088,74.412 L558.122088,70.46 C562.074088,66.356 566.786088,64.38 572.790088,64.38 C580.618088,64.38 587.002088,67.876 587.002088,76.768 L587.002088,102 Z M571.270088,98.808 C575.222088,98.808 579.098088,97.288 581.302088,94.248 L581.302088,87.256 C579.098088,84.292 575.222088,82.772 571.270088,82.772 C565.874088,82.772 562.150088,86.116 562.150088,90.752 C562.150088,95.464 565.874088,98.808 571.270088,98.808 Z M628.895209,102 L628.895209,76.236 C628.895209,68.256 624.867209,64.38 617.267209,64.38 C611.719209,64.38 606.703209,67.496 604.119209,70.612 L604.119209,65.292 L598.419209,65.292 L598.419209,102 L604.119209,102 L604.119209,75.172 C606.323209,72.208 610.503209,69.472 614.987209,69.472 C619.927209,69.472 623.271209,71.448 623.271209,77.984 L623.271209,102 L628.895209,102 Z M672.61233,102 L666.91233,102 L666.91233,96.528 C664.17633,100.252 659.69233,102.912 654.52433,102.912 C644.94833,102.912 638.18433,95.616 638.18433,83.684 C638.18433,71.904 644.94833,64.38 654.52433,64.38 C659.46433,64.38 663.94833,66.812 666.91233,70.84 L666.91233,51.308 L672.61233,51.308 L672.61233,102 Z M655.96833,97.82 C660.45233,97.82 664.93633,95.16 666.91233,91.968 L666.91233,75.4 C664.93633,72.208 660.45233,69.472 655.96833,69.472 C648.52033,69.472 644.11233,75.552 644.11233,83.684 C644.11233,91.816 648.52033,97.82 655.96833,97.82 Z M712.605451,102 L706.905451,102 L706.905451,97.82 C703.941451,101.164 699.685451,102.912 694.745451,102.912 C688.589451,102.912 681.977451,98.732 681.977451,90.752 C681.977451,82.468 688.513451,78.668 694.745451,78.668 C699.761451,78.668 703.941451,80.264 706.905451,83.608 L706.905451,76.996 C706.905451,72.132 702.953451,69.32 697.633451,69.32 C693.225451,69.32 689.653451,70.84 686.385451,74.412 L683.725451,70.46 C687.677451,66.356 692.389451,64.38 698.393451,64.38 C706.221451,64.38 712.605451,67.876 712.605451,76.768 L712.605451,102 Z M696.873451,98.808 C700.825451,98.808 704.701451,97.288 706.905451,94.248 L706.905451,87.256 C704.701451,84.292 700.825451,82.772 696.873451,82.772 C691.477451,82.772 687.753451,86.116 687.753451,90.752 C687.753451,95.464 691.477451,98.808 696.873451,98.808 Z M731.698572,100.176 C731.698572,96.528 729.494572,94.4 726.910572,94.4 C724.630572,94.4 722.882572,96.3 722.882572,98.504 C722.882572,100.708 724.478572,102.38 726.530572,102.38 C726.910572,102.38 727.442572,102.304 727.594572,102.228 C727.290572,104.736 725.086572,107.7 722.654572,109.296 L725.542572,111.652 C729.038572,109.144 731.698572,104.812 731.698572,100.176 Z M759.092814,116.364 C760.080814,116.668 761.980814,116.896 763.196814,116.896 C768.060814,116.82 771.784814,114.768 773.988814,109.448 L792.380814,65.292 L786.224814,65.292 L773.988814,95.388 L761.828814,65.292 L755.596814,65.292 L770.948814,102.38 L768.516814,107.928 C767.224814,110.968 765.552814,111.804 763.044814,111.804 C762.132814,111.804 760.764814,111.576 759.928814,111.196 L759.092814,116.364 Z M814.285934,102.912 C803.113934,102.912 796.121934,94.248 796.121934,83.608 C796.121934,72.968 803.113934,64.38 814.285934,64.38 C825.457934,64.38 832.449934,72.968 832.449934,83.608 C832.449934,94.248 825.457934,102.912 814.285934,102.912 Z M814.285934,97.82 C822.113934,97.82 826.445934,91.132 826.445934,83.608 C826.445934,76.16 822.113934,69.472 814.285934,69.472 C806.457934,69.472 802.125934,76.16 802.125934,83.608 C802.125934,91.132 806.457934,97.82 814.285934,97.82 Z M872.139055,102 L872.139055,65.292 L866.439055,65.292 L866.439055,92.272 C864.311055,95.236 860.055055,97.82 855.647055,97.82 C850.631055,97.82 847.363055,95.92 847.363055,89.46 L847.363055,65.292 L841.663055,65.292 L841.663055,91.208 C841.663055,99.112 845.691055,102.912 853.367055,102.912 C858.839055,102.912 863.627055,100.024 866.439055,96.832 L866.439055,102 L872.139055,102 Z M889.180176,102 L889.180176,76.008 C890.852176,73.044 895.640176,70.156 899.212176,70.156 C900.048176,70.156 900.732176,70.232 901.416176,70.308 L901.416176,64.456 C896.400176,64.456 892.144176,67.344 889.180176,71.144 L889.180176,65.292 L883.480176,65.292 L883.480176,102 L889.180176,102 Z M287.256,189 L269.928,189 L269.928,138.308 L287.256,138.308 C303.064,138.308 313.248,149.328 313.248,163.692 C313.248,178.132 303.064,189 287.256,189 Z M287.256,183.376 C299.568,183.376 306.712,174.56 306.712,163.692 C306.712,152.748 299.796,143.932 287.256,143.932 L276.236,143.932 L276.236,183.376 L287.256,183.376 Z M325.729121,147.048 C327.857121,147.048 329.529121,145.376 329.529121,143.248 C329.529121,141.12 327.857121,139.372 325.729121,139.372 C323.601121,139.372 321.853121,141.12 321.853121,143.248 C321.853121,145.376 323.601121,147.048 325.729121,147.048 Z M328.541121,189 L328.541121,152.292 L322.841121,152.292 L322.841121,189 L328.541121,189 Z M354.626242,203.896 C348.470242,203.896 344.214242,202.68 339.806242,198.348 L342.694242,194.244 C345.734242,197.816 349.382242,199.184 354.626242,199.184 C360.706242,199.184 366.482242,196.22 366.482242,188.468 L366.482242,182.92 C363.746242,186.644 359.262242,189.456 354.094242,189.456 C344.518242,189.456 337.754242,182.312 337.754242,170.456 C337.754242,158.676 344.442242,151.38 354.094242,151.38 C359.034242,151.38 363.518242,153.812 366.482242,157.84 L366.482242,152.292 L372.182242,152.292 L372.182242,188.468 C372.182242,200.096 363.594242,203.896 354.626242,203.896 Z M355.538242,184.364 C360.022242,184.364 364.430242,181.628 366.482242,178.436 L366.482242,162.324 C364.430242,159.208 360.022242,156.472 355.538242,156.472 C348.090242,156.472 343.682242,162.324 343.682242,170.456 C343.682242,178.512 348.090242,184.364 355.538242,184.364 Z M386.411363,147.048 C388.539363,147.048 390.211363,145.376 390.211363,143.248 C390.211363,141.12 388.539363,139.372 386.411363,139.372 C384.283363,139.372 382.535363,141.12 382.535363,143.248 C382.535363,145.376 384.283363,147.048 386.411363,147.048 Z M389.223363,189 L389.223363,152.292 L383.523363,152.292 L383.523363,189 L389.223363,189 Z M409.912484,189.912 C413.180484,189.912 415.232484,188.924 416.676484,187.556 L415.004484,183.224 C414.244484,184.06 412.800484,184.82 411.128484,184.82 C408.696484,184.82 407.480484,182.844 407.480484,180.108 L407.480484,157.308 L414.928484,157.308 L414.928484,152.292 L407.480484,152.292 L407.480484,142.26 L401.704484,142.26 L401.704484,152.292 L395.624484,152.292 L395.624484,157.308 L401.704484,157.308 L401.704484,181.324 C401.704484,186.796 404.440484,189.912 409.912484,189.912 Z M451.501605,189 L445.801605,189 L445.801605,184.82 C442.837605,188.164 438.581605,189.912 433.641605,189.912 C427.485605,189.912 420.873605,185.732 420.873605,177.752 C420.873605,169.468 427.409605,165.668 433.641605,165.668 C438.657605,165.668 442.837605,167.264 445.801605,170.608 L445.801605,163.996 C445.801605,159.132 441.849605,156.32 436.529605,156.32 C432.121605,156.32 428.549605,157.84 425.281605,161.412 L422.621605,157.46 C426.573605,153.356 431.285605,151.38 437.289605,151.38 C445.117605,151.38 451.501605,154.876 451.501605,163.768 L451.501605,189 Z M435.769605,185.808 C439.721605,185.808 443.597605,184.288 445.801605,181.248 L445.801605,174.256 C443.597605,171.292 439.721605,169.772 435.769605,169.772 C430.373605,169.772 426.649605,173.116 426.649605,177.752 C426.649605,182.464 430.373605,185.808 435.769605,185.808 Z M468.618725,189 L468.618725,138.308 L462.918725,138.308 L462.918725,189 L468.618725,189 Z M543.208967,189 L535.988967,189 L531.504967,177.676 L506.272967,177.676 L501.788967,189 L494.568967,189 L515.012967,138.308 L522.840967,138.308 L543.208967,189 Z M529.680967,172.128 L518.888967,144.768 L508.172967,172.128 L529.680967,172.128 Z M561.238088,189.912 C570.662088,189.912 575.602088,184.972 575.602088,178.816 C575.602088,164.528 552.878088,169.772 552.878088,161.792 C552.878088,158.524 555.994088,156.016 561.010088,156.016 C565.798088,156.016 569.750088,157.992 571.954088,160.652 L574.614088,156.7 C571.726088,153.736 567.318088,151.38 561.010088,151.38 C552.270088,151.38 547.406088,156.168 547.406088,161.944 C547.406088,175.548 570.130088,170.076 570.130088,178.968 C570.130088,182.616 567.014088,185.276 561.390088,185.276 C556.374088,185.276 551.738088,182.844 549.306088,180.032 L546.418088,184.136 C550.142088,188.012 555.158088,189.912 561.238088,189.912 Z M596.519209,189.912 C605.943209,189.912 610.883209,184.972 610.883209,178.816 C610.883209,164.528 588.159209,169.772 588.159209,161.792 C588.159209,158.524 591.275209,156.016 596.291209,156.016 C601.079209,156.016 605.031209,157.992 607.235209,160.652 L609.895209,156.7 C607.007209,153.736 602.599209,151.38 596.291209,151.38 C587.551209,151.38 582.687209,156.168 582.687209,161.944 C582.687209,175.548 605.411209,170.076 605.411209,178.968 C605.411209,182.616 602.295209,185.276 596.671209,185.276 C591.655209,185.276 587.019209,182.844 584.587209,180.032 L581.699209,184.136 C585.423209,188.012 590.439209,189.912 596.519209,189.912 Z M622.98433,147.048 C625.11233,147.048 626.78433,145.376 626.78433,143.248 C626.78433,141.12 625.11233,139.372 622.98433,139.372 C620.85633,139.372 619.10833,141.12 619.10833,143.248 C619.10833,145.376 620.85633,147.048 622.98433,147.048 Z M625.79633,189 L625.79633,152.292 L620.09633,152.292 L620.09633,189 L625.79633,189 Z M648.841451,189.912 C658.265451,189.912 663.205451,184.972 663.205451,178.816 C663.205451,164.528 640.481451,169.772 640.481451,161.792 C640.481451,158.524 643.597451,156.016 648.613451,156.016 C653.401451,156.016 657.353451,157.992 659.557451,160.652 L662.217451,156.7 C659.329451,153.736 654.921451,151.38 648.613451,151.38 C639.873451,151.38 635.009451,156.168 635.009451,161.944 C635.009451,175.548 657.733451,170.076 657.733451,178.968 C657.733451,182.616 654.617451,185.276 648.993451,185.276 C643.977451,185.276 639.341451,182.844 636.909451,180.032 L634.021451,184.136 C637.745451,188.012 642.761451,189.912 648.841451,189.912 Z M681.766572,189.912 C685.034572,189.912 687.086572,188.924 688.530572,187.556 L686.858572,183.224 C686.098572,184.06 684.654572,184.82 682.982572,184.82 C680.550572,184.82 679.334572,182.844 679.334572,180.108 L679.334572,157.308 L686.782572,157.308 L686.782572,152.292 L679.334572,152.292 L679.334572,142.26 L673.558572,142.26 L673.558572,152.292 L667.478572,152.292 L667.478572,157.308 L673.558572,157.308 L673.558572,181.324 C673.558572,186.796 676.294572,189.912 681.766572,189.912 Z M723.355693,189 L717.655693,189 L717.655693,184.82 C714.691693,188.164 710.435693,189.912 705.495693,189.912 C699.339693,189.912 692.727693,185.732 692.727693,177.752 C692.727693,169.468 699.263693,165.668 705.495693,165.668 C710.511693,165.668 714.691693,167.264 717.655693,170.608 L717.655693,163.996 C717.655693,159.132 713.703693,156.32 708.383693,156.32 C703.975693,156.32 700.403693,157.84 697.135693,161.412 L694.475693,157.46 C698.427693,153.356 703.139693,151.38 709.143693,151.38 C716.971693,151.38 723.355693,154.876 723.355693,163.768 L723.355693,189 Z M707.623693,185.808 C711.575693,185.808 715.451693,184.288 717.655693,181.248 L717.655693,174.256 C715.451693,171.292 711.575693,169.772 707.623693,169.772 C702.227693,169.772 698.503693,173.116 698.503693,177.752 C698.503693,182.464 702.227693,185.808 707.623693,185.808 Z M765.248814,189 L765.248814,163.236 C765.248814,155.256 761.220814,151.38 753.620814,151.38 C748.072814,151.38 743.056814,154.496 740.472814,157.612 L740.472814,152.292 L734.772814,152.292 L734.772814,189 L740.472814,189 L740.472814,162.172 C742.676814,159.208 746.856814,156.472 751.340814,156.472 C756.280814,156.472 759.624814,158.448 759.624814,164.984 L759.624814,189 L765.248814,189 Z M786.013934,189.912 C789.281934,189.912 791.333934,188.924 792.777934,187.556 L791.105934,183.224 C790.345934,184.06 788.901934,184.82 787.229934,184.82 C784.797934,184.82 783.581934,182.844 783.581934,180.108 L783.581934,157.308 L791.029934,157.308 L791.029934,152.292 L783.581934,152.292 L783.581934,142.26 L777.805934,142.26 L777.805934,152.292 L771.725934,152.292 L771.725934,157.308 L777.805934,157.308 L777.805934,181.324 C777.805934,186.796 780.541934,189.912 786.013934,189.912 Z M801.991055,189.76 C804.271055,189.76 806.171055,187.86 806.171055,185.58 C806.171055,183.3 804.271055,181.4 801.991055,181.4 C799.711055,181.4 797.811055,183.3 797.811055,185.58 C797.811055,187.86 799.711055,189.76 801.991055,189.76 Z" id="Hi!-I’m-Wanda,-your" fill="#555555"></path>
            </g>
            <g id="CanYouTellMeMore" transform="translate(973.000000, 250.000000)">
                <circle id="Oval" fill="#CAD200" cx="770" cy="75" r="75"></circle>
                <text id="You" font-family="ProximaNova-Bold, Proxima Nova" font-size="56" font-weight="bold" letter-spacing="-0.0523369722" fill="#FFFFFF">
                    <tspan x="722" y="91">You</tspan>
                </text>
                <path d="M647,49.523601 L647,9 C647,4.581722 643.418278,1 639,1 L8,1 L8,1 C3.581722,1 -5.41083001e-16,4.581722 0,9 L0,9 L0,236 C5.41083001e-16,240.418278 3.581722,244 8,244 L639,244 C643.418278,244 647,240.418278 647,236 L647,95.6880222 L680.620467,72.6058116 L647,49.523601 Z" id="Speech-bubble" fill="#DDF1F5"></path>
                <path d="M104.184,100 L104.184,49.308 L97.876,49.308 L97.876,71.12 L68.236,71.12 L68.236,49.308 L61.928,49.308 L61.928,100 L68.236,100 L68.236,76.744 L97.876,76.744 L97.876,100 L104.184,100 Z M118.647663,58.048 C120.775663,58.048 122.447663,56.376 122.447663,54.248 C122.447663,52.12 120.775663,50.372 118.647663,50.372 C116.519663,50.372 114.771663,52.12 114.771663,54.248 C114.771663,56.376 116.519663,58.048 118.647663,58.048 Z M121.459663,100 L121.459663,63.292 L115.759663,63.292 L115.759663,100 L121.459663,100 Z M198.266989,100 L212.782989,49.308 L205.714989,49.308 L194.542989,91.564 L182.914989,49.308 L177.670989,49.308 L166.042989,91.564 L154.794989,49.308 L147.802989,49.308 L162.242989,100 L169.082989,100 L180.254989,59.112 L191.426989,100 L198.266989,100 Z M245.106652,100 L239.406652,100 L239.406652,95.82 C236.442652,99.164 232.186652,100.912 227.246652,100.912 C221.090652,100.912 214.478652,96.732 214.478652,88.752 C214.478652,80.468 221.014652,76.668 227.246652,76.668 C232.262652,76.668 236.442652,78.264 239.406652,81.608 L239.406652,74.996 C239.406652,70.132 235.454652,67.32 230.134652,67.32 C225.726652,67.32 222.154652,68.84 218.886652,72.412 L216.226652,68.46 C220.178652,64.356 224.890652,62.38 230.894652,62.38 C238.722652,62.38 245.106652,65.876 245.106652,74.768 L245.106652,100 Z M229.374652,96.808 C233.326652,96.808 237.202652,95.288 239.406652,92.248 L239.406652,85.256 C237.202652,82.292 233.326652,80.772 229.374652,80.772 C223.978652,80.772 220.254652,84.116 220.254652,88.752 C220.254652,93.464 223.978652,96.808 229.374652,96.808 Z M287.006315,100 L287.006315,74.236 C287.006315,66.256 282.978315,62.38 275.378315,62.38 C269.830315,62.38 264.814315,65.496 262.230315,68.612 L262.230315,63.292 L256.530315,63.292 L256.530315,100 L262.230315,100 L262.230315,73.172 C264.434315,70.208 268.614315,67.472 273.098315,67.472 C278.038315,67.472 281.382315,69.448 281.382315,75.984 L281.382315,100 L287.006315,100 Z M330.729978,100 L325.029978,100 L325.029978,94.528 C322.293978,98.252 317.809978,100.912 312.641978,100.912 C303.065978,100.912 296.301978,93.616 296.301978,81.684 C296.301978,69.904 303.065978,62.38 312.641978,62.38 C317.581978,62.38 322.065978,64.812 325.029978,68.84 L325.029978,49.308 L330.729978,49.308 L330.729978,100 Z M314.085978,95.82 C318.569978,95.82 323.053978,93.16 325.029978,89.968 L325.029978,73.4 C323.053978,70.208 318.569978,67.472 314.085978,67.472 C306.637978,67.472 302.229978,73.552 302.229978,81.684 C302.229978,89.816 306.637978,95.82 314.085978,95.82 Z M370.729641,100 L365.029641,100 L365.029641,95.82 C362.065641,99.164 357.809641,100.912 352.869641,100.912 C346.713641,100.912 340.101641,96.732 340.101641,88.752 C340.101641,80.468 346.637641,76.668 352.869641,76.668 C357.885641,76.668 362.065641,78.264 365.029641,81.608 L365.029641,74.996 C365.029641,70.132 361.077641,67.32 355.757641,67.32 C351.349641,67.32 347.777641,68.84 344.509641,72.412 L341.849641,68.46 C345.801641,64.356 350.513641,62.38 356.517641,62.38 C364.345641,62.38 370.729641,65.876 370.729641,74.768 L370.729641,100 Z M354.997641,96.808 C358.949641,96.808 362.825641,95.288 365.029641,92.248 L365.029641,85.256 C362.825641,82.292 358.949641,80.772 354.997641,80.772 C349.601641,80.772 345.877641,84.116 345.877641,88.752 C345.877641,93.464 349.601641,96.808 354.997641,96.808 Z M387.549304,85.788 L388.765304,49.308 L381.621304,49.308 L382.837304,85.788 L387.549304,85.788 Z M385.193304,100.76 C387.473304,100.76 389.373304,98.784 389.373304,96.58 C389.373304,94.3 387.473304,92.4 385.193304,92.4 C382.913304,92.4 381.013304,94.3 381.013304,96.58 C381.013304,98.784 382.913304,100.76 385.193304,100.76 Z M465.04063,100 L479.55663,49.308 L472.48863,49.308 L461.31663,91.564 L449.68863,49.308 L444.44463,49.308 L432.81663,91.564 L421.56863,49.308 L414.57663,49.308 L429.01663,100 L435.85663,100 L447.02863,59.112 L458.20063,100 L465.04063,100 Z M516.820293,100 L516.820293,74.084 C516.820293,66.104 512.792293,62.38 505.116293,62.38 C499.568293,62.38 494.552293,65.496 492.044293,68.612 L492.044293,49.308 L486.344293,49.308 L486.344293,100 L492.044293,100 L492.044293,73.172 C494.172293,70.208 498.428293,67.472 502.836293,67.472 C507.852293,67.472 511.120293,69.296 511.120293,75.832 L511.120293,100 L516.820293,100 Z M556.819956,100 L551.119956,100 L551.119956,95.82 C548.155956,99.164 543.899956,100.912 538.959956,100.912 C532.803956,100.912 526.191956,96.732 526.191956,88.752 C526.191956,80.468 532.727956,76.668 538.959956,76.668 C543.975956,76.668 548.155956,78.264 551.119956,81.608 L551.119956,74.996 C551.119956,70.132 547.167956,67.32 541.847956,67.32 C537.439956,67.32 533.867956,68.84 530.599956,72.412 L527.939956,68.46 C531.891956,64.356 536.603956,62.38 542.607956,62.38 C550.435956,62.38 556.819956,65.876 556.819956,74.768 L556.819956,100 Z M541.087956,96.808 C545.039956,96.808 548.915956,95.288 551.119956,92.248 L551.119956,85.256 C548.915956,82.292 545.039956,80.772 541.087956,80.772 C535.691956,80.772 531.967956,84.116 531.967956,88.752 C531.967956,93.464 535.691956,96.808 541.087956,96.808 Z M577.591619,100.912 C580.859619,100.912 582.911619,99.924 584.355619,98.556 L582.683619,94.224 C581.923619,95.06 580.479619,95.82 578.807619,95.82 C576.375619,95.82 575.159619,93.844 575.159619,91.108 L575.159619,68.308 L582.607619,68.308 L582.607619,63.292 L575.159619,63.292 L575.159619,53.26 L569.383619,53.26 L569.383619,63.292 L563.303619,63.292 L563.303619,68.308 L569.383619,68.308 L569.383619,92.324 C569.383619,97.796 572.119619,100.912 577.591619,100.912 Z M77.888,191.912 C84.576,191.912 88.528,189.176 91.34,185.528 L87.54,182.032 C85.108,185.3 81.992,186.82 78.192,186.82 C70.44,186.82 65.5,180.74 65.5,172.608 C65.5,164.476 70.44,158.472 78.192,158.472 C81.992,158.472 85.108,159.84 87.54,163.184 L91.34,159.764 C88.528,156.116 84.576,153.38 77.888,153.38 C66.944,153.38 59.572,161.74 59.572,172.608 C59.572,183.476 66.944,191.912 77.888,191.912 Z M127.995663,191 L122.295663,191 L122.295663,186.82 C119.331663,190.164 115.075663,191.912 110.135663,191.912 C103.979663,191.912 97.367663,187.732 97.367663,179.752 C97.367663,171.468 103.903663,167.668 110.135663,167.668 C115.151663,167.668 119.331663,169.264 122.295663,172.608 L122.295663,165.996 C122.295663,161.132 118.343663,158.32 113.023663,158.32 C108.615663,158.32 105.043663,159.84 101.775663,163.412 L99.115663,159.46 C103.067663,155.356 107.779663,153.38 113.783663,153.38 C121.611663,153.38 127.995663,156.876 127.995663,165.768 L127.995663,191 Z M112.263663,187.808 C116.215663,187.808 120.091663,186.288 122.295663,183.248 L122.295663,176.256 C120.091663,173.292 116.215663,171.772 112.263663,171.772 C106.867663,171.772 103.143663,175.116 103.143663,179.752 C103.143663,184.464 106.867663,187.808 112.263663,187.808 Z M169.895326,191 L169.895326,165.236 C169.895326,157.256 165.867326,153.38 158.267326,153.38 C152.719326,153.38 147.703326,156.496 145.119326,159.612 L145.119326,154.292 L139.419326,154.292 L139.419326,191 L145.119326,191 L145.119326,164.172 C147.323326,161.208 151.503326,158.472 155.987326,158.472 C160.927326,158.472 164.271326,160.448 164.271326,166.984 L164.271326,191 L169.895326,191 Z M198.974652,205.364 C199.962652,205.668 201.862652,205.896 203.078652,205.896 C207.942652,205.82 211.666652,203.768 213.870652,198.448 L232.262652,154.292 L226.106652,154.292 L213.870652,184.388 L201.710652,154.292 L195.478652,154.292 L210.830652,191.38 L208.398652,196.928 C207.106652,199.968 205.434652,200.804 202.926652,200.804 C202.014652,200.804 200.646652,200.576 199.810652,200.196 L198.974652,205.364 Z M254.174315,191.912 C243.002315,191.912 236.010315,183.248 236.010315,172.608 C236.010315,161.968 243.002315,153.38 254.174315,153.38 C265.346315,153.38 272.338315,161.968 272.338315,172.608 C272.338315,183.248 265.346315,191.912 254.174315,191.912 Z M254.174315,186.82 C262.002315,186.82 266.334315,180.132 266.334315,172.608 C266.334315,165.16 262.002315,158.472 254.174315,158.472 C246.346315,158.472 242.014315,165.16 242.014315,172.608 C242.014315,180.132 246.346315,186.82 254.174315,186.82 Z M312.033978,191 L312.033978,154.292 L306.333978,154.292 L306.333978,181.272 C304.205978,184.236 299.949978,186.82 295.541978,186.82 C290.525978,186.82 287.257978,184.92 287.257978,178.46 L287.257978,154.292 L281.557978,154.292 L281.557978,180.208 C281.557978,188.112 285.585978,191.912 293.261978,191.912 C298.733978,191.912 303.521978,189.024 306.333978,185.832 L306.333978,191 L312.033978,191 Z M375.313304,191 L369.613304,191 L369.613304,185.528 C366.877304,189.252 362.393304,191.912 357.225304,191.912 C347.649304,191.912 340.885304,184.616 340.885304,172.684 C340.885304,160.904 347.649304,153.38 357.225304,153.38 C362.165304,153.38 366.649304,155.812 369.613304,159.84 L369.613304,140.308 L375.313304,140.308 L375.313304,191 Z M358.669304,186.82 C363.153304,186.82 367.637304,184.16 369.613304,180.968 L369.613304,164.4 C367.637304,161.208 363.153304,158.472 358.669304,158.472 C351.221304,158.472 346.813304,164.552 346.813304,172.684 C346.813304,180.816 351.221304,186.82 358.669304,186.82 Z M402.696967,191.912 C391.524967,191.912 384.532967,183.248 384.532967,172.608 C384.532967,161.968 391.524967,153.38 402.696967,153.38 C413.868967,153.38 420.860967,161.968 420.860967,172.608 C420.860967,183.248 413.868967,191.912 402.696967,191.912 Z M402.696967,186.82 C410.524967,186.82 414.856967,180.132 414.856967,172.608 C414.856967,165.16 410.524967,158.472 402.696967,158.472 C394.868967,158.472 390.536967,165.16 390.536967,172.608 C390.536967,180.132 394.868967,186.82 402.696967,186.82 Z M436.31263,176.94 L440.94863,174.888 C439.65663,173.976 438.97263,172.456 438.97263,171.24 C438.97263,163.792 453.64063,162.804 453.64063,151.328 C453.64063,144.792 448.01663,139.548 438.74463,139.548 C431.52463,139.548 425.90063,142.512 422.25263,147.3 L426.05263,151.404 C428.86463,147.604 432.43663,145.172 438.21263,145.172 C444.14063,145.172 447.10463,148.44 447.10463,152.24 C447.10463,160.296 433.42463,161.056 433.42463,170.708 C433.42463,173.064 434.26063,175.192 436.31263,176.94 Z M437.90863,191.76 C440.18863,191.76 442.08863,189.86 442.08863,187.58 C442.08863,185.3 440.18863,183.4 437.90863,183.4 C435.62863,183.4 433.72863,185.3 433.72863,187.58 C433.72863,189.86 435.62863,191.76 437.90863,191.76 Z" id="Hi-Wanda!-What-can-y" fill="#555555"></path>
            </g>
        </g>
    </g>
</svg>