<?xml version="1.0" encoding="UTF-8"?>
<svg width="924px" height="323px" viewBox="0 0 924 323" version="1.1" xmlns="http://www.w3.org/2000/svg" xmlns:xlink="http://www.w3.org/1999/xlink">
    <!-- Generator: Sketch 44.1 (41455) - http://www.bohemiancoding.com/sketch -->
    <title>Welcome</title>
    <desc>Created with Sketch.</desc>
    <defs></defs>
    <g id="Page-1" stroke="none" stroke-width="1" fill="none" fill-rule="evenodd">
        <g id="Welcome">
            <g id="WhatCanIDoForYou" transform="translate(33.000000, 46.000000)">
                <circle id="Oval" fill="#76878F" cx="75" cy="75" r="75"></circle>
                <path d="M121.1875,49.0975 L109.7625,49.0975 L84.09125,85.05125 C83.345,86.121875 83.06,87.418125 83.2875,88.704375 C83.51625,89.990625 84.2325,91.109375 85.3025,91.854375 C86.124375,92.430625 87.091875,92.734375 88.1,92.734375 L88.10125,92.734375 L107.6975,92.725 L107.6975,102.8 L117.47125,102.8 L117.5025,84.323125 L96.519375,84.323125 L121.186875,49.0975 L121.1875,49.0975 Z" id="Shape-Copy" fill="#A2D722"></path>
                <path d="M62.425,48.625 L62.425,80.4 C62.425,88.3125 57.698125,93.0375 49.7825,93.0375 C41.815,93.0375 37.059375,88.3125 37.059375,80.4 L37.059375,48.625 L26.5,48.625 L26.5,79.195625 C26.5,93.314375 35.85625,102.8 49.7825,102.8 C63.70625,102.8 73.0625,93.31375 73.0625,79.195 L73.0625,48.625 L62.425,48.625 L62.425,48.625 Z" id="Path" fill="#FFFFFF"></path>
                <path d="M210,97.2099336 L210,235 C210,239.418278 213.581722,243 218,243 L849,243 C853.418278,243 857,239.418278 857,235 L857,8 C857,3.581722 853.418278,-8.11624501e-16 849,0 L218,0 C213.581722,8.11624501e-16 210,3.581722 210,8 L210,8 L210,50.0016895 L175.619341,73.6058116 L210,97.2099336 Z" id="Speech-bubble" fill="#BBE5F5"></path>
                <path d="M317.184,103 L317.184,52.308 L310.876,52.308 L310.876,74.12 L281.236,74.12 L281.236,52.308 L274.928,52.308 L274.928,103 L281.236,103 L281.236,79.744 L310.876,79.744 L310.876,103 L317.184,103 Z M331.565121,61.048 C333.693121,61.048 335.441121,59.376 335.441121,57.248 C335.441121,55.12 333.693121,53.372 331.565121,53.372 C329.513121,53.372 327.765121,55.12 327.765121,57.248 C327.765121,59.376 329.513121,61.048 331.565121,61.048 Z M334.453121,103 L334.453121,66.292 L328.753121,66.292 L328.753121,103 L334.453121,103 Z M351.190242,88.788 L352.406242,52.308 L345.262242,52.308 L346.478242,88.788 L351.190242,88.788 Z M348.834242,103.76 C351.114242,103.76 353.014242,101.784 353.014242,99.58 C353.014242,97.3 351.114242,95.4 348.834242,95.4 C346.554242,95.4 344.654242,97.3 344.654242,99.58 C344.654242,101.784 346.554242,103.76 348.834242,103.76 Z M428.592484,103 L443.032484,52.308 L436.040484,52.308 L424.868484,94.564 L413.240484,52.308 L407.996484,52.308 L396.368484,94.564 L385.120484,52.308 L378.128484,52.308 L392.568484,103 L399.408484,103 L410.580484,62.112 L421.752484,103 L428.592484,103 Z M480.365605,103 L480.365605,77.084 C480.365605,69.104 476.337605,65.38 468.661605,65.38 C463.113605,65.38 458.097605,68.572 455.513605,71.612 L455.513605,52.308 L449.813605,52.308 L449.813605,103 L455.513605,103 L455.513605,76.172 C457.717605,73.208 461.973605,70.472 466.381605,70.472 C471.321605,70.472 474.665605,72.372 474.665605,78.832 L474.665605,103 L480.365605,103 Z M520.358725,103 L514.658725,103 L514.658725,98.82 C511.618725,102.164 507.438725,103.912 502.498725,103.912 C496.266725,103.912 489.654725,99.732 489.654725,91.752 C489.654725,83.544 496.266725,79.668 502.498725,79.668 C507.514725,79.668 511.694725,81.264 514.658725,84.684 L514.658725,78.072 C514.658725,73.132 510.706725,70.32 505.386725,70.32 C500.978725,70.32 497.406725,71.916 494.138725,75.412 L491.478725,71.46 C495.430725,67.356 500.142725,65.38 506.146725,65.38 C513.898725,65.38 520.358725,68.876 520.358725,77.768 L520.358725,103 Z M504.550725,99.808 C508.578725,99.808 512.454725,98.288 514.658725,95.248 L514.658725,88.332 C512.454725,85.292 508.578725,83.772 504.550725,83.772 C499.230725,83.772 495.506725,87.116 495.506725,91.828 C495.506725,96.464 499.230725,99.808 504.550725,99.808 Z M540.971846,103.912 C544.315846,103.912 546.367846,102.924 547.811846,101.556 L546.139846,97.3 C545.379846,98.136 543.859846,98.82 542.263846,98.82 C539.755846,98.82 538.539846,96.844 538.539846,94.108 L538.539846,71.308 L545.987846,71.308 L545.987846,66.292 L538.539846,66.292 L538.539846,56.26 L532.839846,56.26 L532.839846,66.292 L526.759846,66.292 L526.759846,71.308 L532.839846,71.308 L532.839846,95.324 C532.839846,100.796 535.575846,103.912 540.971846,103.912 Z M589.722088,103.912 C596.410088,103.912 600.362088,101.176 603.174088,97.528 L599.374088,94.032 C596.942088,97.3 593.826088,98.82 590.026088,98.82 C582.198088,98.82 577.334088,92.74 577.334088,84.608 C577.334088,76.476 582.198088,70.472 590.026088,70.472 C593.826088,70.472 596.942088,71.916 599.374088,75.26 L603.174088,71.764 C600.362088,68.116 596.410088,65.38 589.722088,65.38 C578.778088,65.38 571.406088,73.74 571.406088,84.608 C571.406088,95.552 578.778088,103.912 589.722088,103.912 Z M639.747209,103 L634.047209,103 L634.047209,98.82 C631.007209,102.164 626.827209,103.912 621.887209,103.912 C615.655209,103.912 609.043209,99.732 609.043209,91.752 C609.043209,83.544 615.655209,79.668 621.887209,79.668 C626.903209,79.668 631.083209,81.264 634.047209,84.684 L634.047209,78.072 C634.047209,73.132 630.095209,70.32 624.775209,70.32 C620.367209,70.32 616.795209,71.916 613.527209,75.412 L610.867209,71.46 C614.819209,67.356 619.531209,65.38 625.535209,65.38 C633.287209,65.38 639.747209,68.876 639.747209,77.768 L639.747209,103 Z M623.939209,99.808 C627.967209,99.808 631.843209,98.288 634.047209,95.248 L634.047209,88.332 C631.843209,85.292 627.967209,83.772 623.939209,83.772 C618.619209,83.772 614.895209,87.116 614.895209,91.828 C614.895209,96.464 618.619209,99.808 623.939209,99.808 Z M681.56433,103 L681.56433,77.236 C681.56433,69.256 677.53633,65.38 669.86033,65.38 C664.38833,65.38 659.37233,68.572 656.78833,71.612 L656.78833,66.292 L651.08833,66.292 L651.08833,103 L656.78833,103 L656.78833,76.172 C658.91633,73.208 663.17233,70.472 667.65633,70.472 C672.59633,70.472 675.86433,72.524 675.86433,78.984 L675.86433,103 L681.56433,103 Z M718.990572,103 L718.990572,52.308 L712.682572,52.308 L712.682572,103 L718.990572,103 Z M307,190 L301.3,190 L301.3,184.528 C298.564,188.252 294.08,190.912 288.912,190.912 C279.336,190.912 272.572,183.616 272.572,171.684 C272.572,159.98 279.26,152.38 288.912,152.38 C293.852,152.38 298.336,154.812 301.3,158.84 L301.3,139.308 L307,139.308 L307,190 Z M290.28,185.82 C294.84,185.82 299.248,183.236 301.3,180.044 L301.3,163.4 C299.248,160.208 294.84,157.472 290.28,157.472 C282.908,157.472 278.5,163.552 278.5,171.684 C278.5,179.816 282.908,185.82 290.28,185.82 Z M334.377121,190.912 C323.205121,190.912 316.213121,182.248 316.213121,171.608 C316.213121,160.968 323.205121,152.38 334.377121,152.38 C345.549121,152.38 352.541121,160.968 352.541121,171.608 C352.541121,182.248 345.549121,190.912 334.377121,190.912 Z M334.377121,185.82 C342.205121,185.82 346.537121,179.132 346.537121,171.608 C346.537121,164.16 342.205121,157.472 334.377121,157.472 C326.549121,157.472 322.141121,164.16 322.141121,171.608 C322.141121,179.132 326.549121,185.82 334.377121,185.82 Z M388.599363,190 L382.899363,190 L382.899363,158.308 L376.819363,158.308 L376.819363,153.292 L382.899363,153.292 L382.899363,150.48 C382.899363,142.956 387.003363,138.548 393.539363,138.548 C396.427363,138.548 399.011363,139.232 401.291363,141.36 L398.935363,145.084 C397.719363,144.02 396.275363,143.26 394.375363,143.26 C390.651363,143.26 388.599363,145.844 388.599363,150.48 L388.599363,153.292 L396.047363,153.292 L396.047363,158.308 L388.599363,158.308 L388.599363,190 Z M418.788484,190.912 C407.616484,190.912 400.624484,182.248 400.624484,171.608 C400.624484,160.968 407.616484,152.38 418.788484,152.38 C429.960484,152.38 436.952484,160.968 436.952484,171.608 C436.952484,182.248 429.960484,190.912 418.788484,190.912 Z M418.788484,185.82 C426.616484,185.82 430.948484,179.132 430.948484,171.608 C430.948484,164.16 426.616484,157.472 418.788484,157.472 C410.960484,157.472 406.552484,164.16 406.552484,171.608 C406.552484,179.132 410.960484,185.82 418.788484,185.82 Z M451.865605,190 L451.865605,164.008 C453.537605,161.044 458.325605,158.156 461.821605,158.156 C462.733605,158.156 463.417605,158.232 464.101605,158.384 L464.101605,152.532 C459.085605,152.532 454.829605,155.344 451.865605,159.22 L451.865605,153.292 L446.165605,153.292 L446.165605,190 L451.865605,190 Z M488.683846,204.364 C489.747846,204.668 491.647846,204.896 492.863846,204.896 C497.727846,204.82 501.451846,202.768 503.655846,197.448 L522.047846,153.292 L515.815846,153.292 L503.655846,183.388 L491.419846,153.292 L485.263846,153.292 L500.615846,190.38 L498.183846,195.928 C496.891846,198.968 495.219846,199.804 492.711846,199.804 C491.799846,199.804 490.431846,199.576 489.595846,199.196 L488.683846,204.364 Z M543.952967,190.912 C532.780967,190.912 525.788967,182.248 525.788967,171.608 C525.788967,160.968 532.780967,152.38 543.952967,152.38 C555.124967,152.38 562.116967,160.968 562.116967,171.608 C562.116967,182.248 555.124967,190.912 543.952967,190.912 Z M543.952967,185.82 C551.780967,185.82 556.112967,179.132 556.112967,171.608 C556.112967,164.16 551.780967,157.472 543.952967,157.472 C536.124967,157.472 531.716967,164.16 531.716967,171.608 C531.716967,179.132 536.124967,185.82 543.952967,185.82 Z M601.806088,190 L601.806088,153.292 L596.106088,153.292 L596.106088,180.272 C593.978088,183.236 589.722088,185.82 585.238088,185.82 C580.298088,185.82 577.030088,183.92 577.030088,177.46 L577.030088,153.292 L571.330088,153.292 L571.330088,179.208 C571.330088,187.188 575.358088,190.912 583.034088,190.912 C588.506088,190.912 593.294088,188.024 596.106088,184.832 L596.106088,190 L601.806088,190 Z M621.127209,175.94 L625.763209,173.964 C624.471209,172.976 623.711209,171.456 623.711209,170.24 C623.711209,162.792 638.455209,161.804 638.455209,150.328 C638.455209,143.792 632.831209,138.548 623.559209,138.548 C616.339209,138.548 610.715209,141.588 607.067209,146.3 L610.867209,150.404 C613.679209,146.68 617.251209,144.172 622.951209,144.172 C628.955209,144.172 631.919209,147.44 631.919209,151.24 C631.919209,159.296 618.163209,160.132 618.163209,169.784 C618.163209,172.064 619.075209,174.192 621.127209,175.94 Z M622.723209,190.76 C625.003209,190.76 626.903209,188.86 626.903209,186.58 C626.903209,184.3 625.003209,182.4 622.723209,182.4 C620.443209,182.4 618.543209,184.3 618.543209,186.58 C618.543209,188.86 620.443209,190.76 622.723209,190.76 Z" id="Hi!-What-can-I-do-fo" fill="#555555"></path>
            </g>
        </g>
    </g>
</svg>